# xmcd CD database file
#
# Track frame offsets:
#	150
#	16569
#	37463
#	61760
#	91175
#	114746
#	141160
#
# Disc length: 2154 seconds
#
# Revision: 0
# Processed by: cddbd v1.5.2PL0 Copyright (c) Steve Scherf et al.
# Submitted via: CDex 1.51
#
DISCID=56086807
DTITLE=State Of Monc - Clippertron Extended
DYEAR=2007
DGENRE=Jazz
TTITLE0=Big (featuring Pete Philly)
TTITLE1=Dateline (Tribal Rhymes Remix)
TTITLE2=Untitled
TTITLE3=Clipperton (Flowriders Remix featuring Micu)
TTITLE4=Sooyuz One (Longplayers Remix)
TTITLE5=Field X (Izmar's Asana Breakbeat Remix)
TTITLE6=Clipperton (Smiley's Dub Remix)
EXTD=YEAR: 2007
EXTT0=
EXTT1=
EXTT2=
EXTT3=
EXTT4=
EXTT5=
EXTT6=
PLAYORDER=
